<svg width="33" height="17" viewBox="0 0 33 17" fill="none" xmlns="http://www.w3.org/2000/svg">
<path fill-rule="evenodd" clip-rule="evenodd" d="M9.5382 0.399902H24.2154C26.7132 0.399902 28.8187 1.34859 30.3259 2.85343C31.8124 4.35904 32.6999 6.44154 32.6999 8.70994V8.73068C32.6999 11.0406 31.8332 13.1645 30.2637 14.7109C28.8187 16.1128 26.7539 17 24.2154 17H9.5382C6.99895 17 4.85189 16.1135 3.32464 14.6701C1.71435 13.1446 0.806152 11.0406 0.806152 8.7107C0.806152 6.38085 1.69359 4.33906 3.2216 2.83346C4.76961 1.32785 6.93743 0.399902 9.5382 0.399902Z" fill="#B92028"/>
<path d="M20.8523 3.59012L21.1825 5.13048C21.5327 4.65834 22.0073 4.26809 22.5642 3.89773C23.121 3.5488 23.8214 3.38428 24.6462 3.38428C25.1823 3.38428 25.6769 3.46615 26.1308 3.65133C26.6047 3.83651 27.0171 4.12347 27.3474 4.49383C27.6976 4.86342 27.9656 5.31566 28.1515 5.84977C28.3373 6.4252 28.4402 7.06185 28.4402 7.78038V14.3742H26.4196V7.78038C26.4196 6.0755 25.657 5.23301 24.1309 5.23301H23.7807C23.389 5.25367 23.0588 5.37687 22.7293 5.56205C22.4198 5.72657 22.1517 5.93165 21.9044 6.17804C21.6779 6.42444 21.492 6.69149 21.3684 6.97921C21.2447 7.26693 21.1825 7.53399 21.1825 7.78038V14.3742H19.1411V3.59012H20.8523Z" fill="white"/>
<path d="M15.655 12.0269C15.8611 11.7391 16.0264 11.4315 16.171 11.1023C16.3156 10.7533 16.4187 10.4036 16.481 10.0546C16.5633 9.70555 16.6048 9.33512 16.6048 8.96544C16.6048 8.80089 16.5841 8.63634 16.5841 8.47255L11.5671 11.3488L14.6643 13.1359L14.7882 13.0127L14.9743 12.8481C15.2427 12.6017 15.4696 12.3139 15.6557 12.0261L15.655 12.0269ZM12.1655 14.349C12.537 14.287 12.8885 14.1638 13.2184 14.0199C13.4245 13.938 13.6314 13.8347 13.8168 13.7321C13.9614 13.6502 14.106 13.5676 14.2506 13.465L9.23366 10.5888V14.1431C9.50208 14.2457 9.79127 14.3284 10.1005 14.3689C10.4104 14.4309 10.7403 14.4508 11.0711 14.4508C11.4425 14.4508 11.814 14.4302 12.1655 14.3483V14.349ZM6.48794 12.0269C6.67406 12.3147 6.90095 12.6025 7.1486 12.8489C7.41702 13.0954 7.68544 13.3211 7.97463 13.527C8.22228 13.6709 8.46993 13.8355 8.73835 13.9587V8.18554L5.64114 9.97266C5.66191 10.1579 5.70345 10.3217 5.76497 10.5069C5.82727 10.712 5.8888 10.8972 5.9711 11.1023C6.11569 11.4315 6.28104 11.7391 6.48717 12.0269H6.48794ZM6.48794 5.88408C6.28181 6.17186 6.11646 6.47954 5.97187 6.80865C5.82727 7.15765 5.72421 7.50742 5.64114 7.85643C5.57885 8.2261 5.53809 8.57587 5.53809 8.96621V9.29532L5.55885 9.43921L10.5758 6.56296L7.47855 4.77584L7.33396 4.89906L7.14783 5.06361C6.90018 5.33072 6.67329 5.59784 6.48717 5.88561L6.48794 5.88408ZM9.97739 3.56273C9.60591 3.64462 9.25443 3.74795 8.92448 3.89184C8.69759 3.97373 8.51147 4.07706 8.30534 4.17962C8.16075 4.26151 8.03692 4.36483 7.89233 4.44673L12.9092 7.34364V3.76861C12.6201 3.66606 12.3309 3.5834 12.0425 3.54283C11.7325 3.48084 11.4026 3.46094 11.0718 3.46094C10.7004 3.46094 10.3289 3.50227 9.97739 3.5635V3.56273ZM9.23366 10.014L11.0711 11.0618L12.9085 10.014V7.89776L11.0711 6.84997L9.23366 7.89776V10.014ZM15.655 5.88408C15.4688 5.59631 15.242 5.32919 14.9735 5.06208C14.7259 4.81563 14.4575 4.58985 14.1683 4.40463C13.9206 4.24008 13.673 4.09619 13.4045 3.97297V9.72545L16.5017 7.93832C16.481 7.77377 16.4195 7.58932 16.3779 7.4041C16.3156 7.21888 16.2541 7.01376 16.1718 6.80865C16.0272 6.47954 15.8619 6.17186 15.6557 5.88408H15.655Z" fill="white"/>
<path d="M15.6194 12.0699C15.8257 11.7818 15.9912 11.4738 16.1359 11.1443C16.2806 10.795 16.3838 10.4448 16.4461 10.0955C16.5285 9.74609 16.5701 9.37526 16.5701 9.00521C16.5701 8.84048 16.5493 8.67576 16.5493 8.5118L11.5279 11.391L14.6279 13.18L14.7518 13.0567L14.9381 12.892C15.2068 12.6453 15.4338 12.3572 15.6201 12.0691L15.6194 12.0699ZM12.1268 14.3944C12.4986 14.3324 12.8504 14.209 13.1806 14.065C13.3869 13.983 13.594 13.8796 13.7795 13.7769C13.9243 13.6949 14.069 13.6122 14.2137 13.5095L9.19232 10.6302V14.1883C9.46098 14.291 9.75043 14.3737 10.0599 14.4143C10.3701 14.4764 10.7004 14.4963 11.0314 14.4963C11.4032 14.4963 11.775 14.4756 12.1268 14.3936V14.3944ZM6.44414 12.0699C6.63043 12.3579 6.85753 12.646 7.1054 12.8927C7.37406 13.1394 7.64272 13.3655 7.93216 13.5716C8.18004 13.7156 8.42791 13.8803 8.69657 14.0037V8.22448L5.59659 10.0135C5.61738 10.1989 5.65895 10.3629 5.72053 10.5483C5.78289 10.7536 5.84447 10.939 5.92684 11.1443C6.07156 11.4738 6.23707 11.7818 6.44337 12.0699H6.44414ZM6.44414 5.92062C6.23784 6.2087 6.07233 6.5167 5.92761 6.84615C5.78289 7.19552 5.67973 7.54566 5.59659 7.89503C5.53424 8.26509 5.49344 8.61523 5.49344 9.00597V9.33542L5.51422 9.47946L10.5356 6.60021L7.43564 4.81122L7.29092 4.93457L7.10463 5.09929C6.85675 5.36669 6.62966 5.63408 6.44337 5.92216L6.44414 5.92062ZM9.93671 3.59684C9.5649 3.67882 9.2131 3.78226 8.88286 3.92629C8.65577 4.00827 8.46948 4.11171 8.26317 4.21437C8.11845 4.29635 7.99452 4.39978 7.84979 4.48176L12.8712 7.3817V3.80294C12.5817 3.70028 12.2923 3.61753 12.0036 3.57692C11.6934 3.51486 11.3632 3.49494 11.0321 3.49494C10.6603 3.49494 10.2885 3.53632 9.93671 3.59761V3.59684ZM9.19232 10.0549L11.0314 11.1037L12.8704 10.0549V7.9364L11.0314 6.88752L9.19232 7.9364V10.0549ZM15.6194 5.92062C15.4331 5.63254 15.206 5.36515 14.9373 5.09776C14.6894 4.85106 14.4208 4.62504 14.1313 4.43963C13.8835 4.2749 13.6356 4.13086 13.3669 4.00751V9.76601L16.4669 7.97701C16.4461 7.81229 16.3845 7.62764 16.343 7.44223C16.2806 7.25682 16.219 7.05148 16.1367 6.84615C15.9919 6.5167 15.8264 6.2087 15.6201 5.92062H15.6194ZM16.0327 5.65323C16.239 5.962 16.4253 6.31137 16.5909 6.66074C16.7356 7.0308 16.8595 7.42154 16.9419 7.81229C17.0242 8.20303 17.0658 8.59377 17.0658 9.00521C17.0658 9.41664 17.0242 9.80738 16.9419 10.1981C16.8595 10.5889 16.7356 10.9589 16.5909 11.329C16.4253 11.699 16.2398 12.0285 16.0327 12.3365C15.8057 12.6659 15.5778 12.9533 15.2891 13.2413C15.0205 13.5087 14.7102 13.7554 14.4008 13.9815C14.0698 14.1868 13.7395 14.3722 13.3677 14.5162C12.9959 14.681 12.6241 14.8043 12.2315 14.8863C11.8389 14.9484 11.4255 14.989 11.0329 14.989C10.6195 14.989 10.2269 14.9476 9.83433 14.8863C9.44174 14.8043 9.04914 14.681 8.67733 14.5162C8.3263 14.3722 7.9745 14.1868 7.66504 13.9815C7.33403 13.7554 7.04535 13.5087 6.77669 13.2413C6.48725 12.9533 6.23938 12.6652 6.03307 12.3365C5.80598 12.0277 5.61969 11.699 5.47497 11.329C5.30946 10.9589 5.20631 10.5889 5.12394 10.1981C5.04157 9.80738 5 9.39595 5 9.00521C5 8.59377 5.04157 8.20303 5.12394 7.81229C5.20631 7.42154 5.31023 7.0308 5.47497 6.66074C5.61969 6.31137 5.80598 5.96123 6.03307 5.65323C6.23938 5.32378 6.48802 5.03647 6.77669 4.74839C7.04535 4.481 7.3348 4.23429 7.66504 4.02819C7.97527 3.80218 8.3263 3.61676 8.67733 3.47272C9.04914 3.308 9.44174 3.20533 9.83433 3.12335C10.2269 3.04137 10.6195 3 11.0329 3C11.4463 3 11.8389 3.04137 12.2315 3.12335C12.6241 3.20533 12.9959 3.30877 13.3677 3.47272C13.7395 3.61676 14.0705 3.80218 14.4008 4.02819C14.711 4.23353 15.0205 4.481 15.2891 4.74839C15.5578 5.03647 15.8057 5.32455 16.0327 5.65323Z" fill="#B92028"/>
</svg>
